<?xml version="1.0" encoding="utf-8"?>
<!-- Generator: Adobe Illustrator 24.1.1, SVG Export Plug-In . SVG Version: 6.00 Build 0)  -->
<svg version="1.1" id="Layer_1" xmlns="http://www.w3.org/2000/svg" xmlns:xlink="http://www.w3.org/1999/xlink" x="0px" y="0px"
	 viewBox="0 0 400 400" style="enable-background:new 0 0 400 400;" xml:space="preserve">
<style type="text/css">
	.st0{fill:none;stroke:#29A19D;stroke-width:5;stroke-miterlimit:10;}
	.st1{fill:none;stroke:#AEDAB5;stroke-width:5;stroke-miterlimit:10;}
</style>
<path class="st0" d="M307.03,67.26c-7.28,0-13.8,0-20.32,0c-60.59,0-121.17-0.08-181.76,0.05c-20.18,0.04-37.05,17.4-38.13,38
	c-1.18,22.57,18.97,42,41.61,41.59c24.09-0.44,48.2-0.09,72.3-0.08c0.33,0,0.66,0.08,1.4,0.17c-2.26,5.96-5.94,11.04-8.97,16.42
	c-6.53,11.62-13.52,22.98-20.09,34.59c-1.36,2.41-2.77,3.24-5.44,3.22c-15.4-0.11-30.83,0.56-46.18-0.21
	c-18.75-0.95-36.12-6.99-51.24-18.36c-19.57-14.72-32.09-34.4-36.19-58.44c-4.53-26.6,0.17-51.77,17-73.68
	C45.2,32.06,63.35,19.76,86.34,14.78c7.57-1.64,15.09-1.88,22.72-1.88c90.71,0.01,181.42,0,272.14,0c1.81,0,3.61,0,6.4,0
	c-3.62,4.21-6.91,7.64-10.02,11.14c-7.78,8.72-16.12,16.92-24.14,25.42c-17.75,18.79-35.58,37.51-53.07,56.55
	c-9.33,10.16-18.83,20.17-28.34,30.17c-3.45,3.63-6.73,7.43-10.18,11.05c-0.95,0.99-1.63,2.63-4.27,2.27
	C274.09,122.04,290.43,94.87,307.03,67.26z"/>
<path class="st1" d="M12.4,380.53c3.45-4.06,6.19-7.58,9.24-10.8c8.74-9.24,17.75-18.22,26.38-27.56
	c15.87-17.19,31.89-34.24,47.98-51.22c10.23-10.79,20.28-21.75,30.46-32.59c5.01-5.34,9.93-10.73,16.1-15.19
	c-16.47,27.4-32.95,54.81-49.87,82.95c2.45,0,4.05,0,5.65,0c65.5,0,131,0,196.5,0c20.24,0,37.47-18.1,38.33-38.47
	c0.91-21.55-18.04-41.52-41.03-41.21c-24.29,0.33-48.58,0.06-72.87,0.04c-0.33,0-0.65-0.12-1.34-0.26c2.1-6.81,6.6-12.29,9.89-18.35
	c6.04-11.11,12.84-21.8,19.14-32.77c1.26-2.2,2.61-3.06,5.1-3.05c15.41,0.09,30.88-0.77,46.22,0.22
	c27.62,1.8,50.75,13.06,68.49,35.02c16.45,20.36,22.87,43.8,20.24,69.24c-3.23,31.28-19.27,55.21-46.21,71.47
	c-14.57,8.79-30.53,12.59-47.55,12.57c-91.46-0.09-182.93-0.04-274.39-0.04C17.04,380.53,15.2,380.53,12.4,380.53z"/>
</svg>
